<svg width="400" height="101" viewBox="0 0 400 101" fill="none" xmlns="http://www.w3.org/2000/svg">
<path opacity="0.5" d="M14.7526 51.3086C14.6327 51.2354 14.5277 51.1622 14.4078 51.0889C13.7031 50.5763 12.9685 49.9904 12.2189 49.3313C12.2339 57.6506 15.1424 65.5744 20.2099 71.931C17.6162 66.6875 15.982 61.5319 15.3223 56.4935C15.0974 54.7213 14.9025 52.993 14.7526 51.3086Z" fill="#554E8E"/>
<path opacity="0.5" d="M28.3358 84.7175C14.3928 76.6033 6.22187 61.1218 7.961 44.9813C5.72712 42.3156 3.61318 39.152 2.02398 35.5782C1.81409 36.2813 1.61918 36.9696 1.43927 37.6873C-5.11244 63.89 11.3193 90.3125 38.1408 96.713C39.1753 96.962 40.2098 97.167 41.2443 97.3428C38.0209 95.0433 34.9924 92.568 32.7136 90.0049C31.1543 88.2473 29.7001 86.475 28.3358 84.7175Z" fill="#554E8E"/>
<path opacity="0.5" d="M83.7031 19.1887C84.2428 20.2286 84.9175 21.6347 85.2323 23.2605C85.4722 24.4908 85.4572 25.5746 85.2923 26.4974C85.6221 26.9807 85.922 27.464 86.2368 27.9474C86.6116 28.0645 87.2563 28.3135 87.871 28.8408L89.9849 30.159L89.5201 31.9312C89.5351 32.0045 89.5651 32.0777 89.5801 32.1509C89.715 32.6782 89.88 33.3373 89.9249 33.5424L89.9549 33.6888C90.1348 34.4797 90.2998 35.2121 90.5396 35.7979C90.6596 36.1055 90.7195 36.1641 91.0494 36.2959C91.844 36.5888 93.2683 36.6767 94.3027 36.7353C94.4227 36.7353 94.7525 36.7353 94.9924 36.7207C95.877 36.6767 97.0913 36.6328 98.3657 36.9111C95.0973 24.7544 87.0914 14.121 75.907 7.50076C76.2518 7.88157 76.5966 8.27702 76.9415 8.68713C79.925 12.2462 82.0239 15.9958 83.7031 19.1887Z" fill="#554E8E"/>
<path opacity="0.5" d="M15.4573 20.7559C16.6716 20.9024 17.7661 21.2539 18.5307 21.6786C18.9505 21.2246 19.3853 20.7706 19.8201 20.3312C20.2099 19.5256 20.6147 18.7054 21.0345 17.8705C24.018 12.1437 27.0314 7.5447 31.1694 4.02952C24.9925 6.49014 19.3553 10.1371 14.6177 14.7655L14.9775 19.9943C15.1274 20.2579 15.2923 20.5069 15.4573 20.7559Z" fill="#554E8E"/>
<path opacity="0.5" d="M99.9998 49.8586C99.8049 50.2394 99.595 50.6349 99.3851 51.0304C98.1257 53.3885 96.8514 55.6294 95.562 57.7824L95.2472 58.2951C92.0238 63.5825 88.6805 68.2401 85.1722 72.3118C86.4016 72.9563 87.676 73.5128 88.8604 74.0108C89.715 74.377 90.8694 74.9043 92.1288 75.6073C95.0223 71.184 97.2412 66.2335 98.5755 60.8582C99.4901 57.1819 99.9548 53.491 99.9998 49.8586Z" fill="#554E8E"/>
<path d="M94.4976 83.2235C92.5336 80.9386 89.3552 79.1811 87.0313 78.1997C84.8125 77.2623 82.6086 76.2664 80.6296 74.9189C80.3447 74.7285 79.5351 73.8936 79.2353 73.879C78.9204 73.879 78.1558 74.9628 77.9309 75.1972C77.0464 76.1199 76.1468 77.028 75.2173 77.9068C73.0883 79.9427 72.2188 80.3967 69.9099 82.2568C68.5606 83.077 67.2263 83.9119 65.862 84.7028C60.4947 87.8079 54.4227 89.8584 48.1859 90.3124C46.7466 90.415 45.8021 88.8478 45.1874 87.8079C44.4227 86.519 43.868 85.025 43.3133 83.6483C42.1739 80.8508 41.2743 77.9068 41.0644 74.8896C40.5997 68.1815 41.4842 61.4441 43.868 55.1314C45.2623 51.4258 47.0314 47.8374 49.0254 44.3955C50.7346 41.4515 52.4887 38.5222 54.3478 35.6515C55.2323 34.2747 56.1469 32.9272 57.0014 31.5358C57.826 30.159 58.6506 28.7676 59.6251 27.4933C60.1498 26.8049 60.7495 25.9408 61.5591 25.5307C63.0584 24.7837 65.1573 26.0287 66.3117 26.9368C67.9159 28.1817 68.8755 29.8221 69.4752 31.6822C69.82 32.7514 71.5891 32.0484 72.3987 31.9898C73.2533 31.9312 72.6686 27.6691 73.823 26.966C74.1528 26.761 75.3972 26.8342 75.3972 26.8342C75.3972 26.8342 78.4407 29.0019 80.0449 27.4347C81.8589 25.6918 80.4047 22.6892 79.685 21.3271C76.7765 15.7468 71.844 7.06136 62.1289 3.07749C56.4167 0.734043 52.3088 0.0310076 45.1874 1.979C34.7226 4.82044 30.06 10.3715 25.0375 20.0089C18.5607 32.4585 17.976 42.2278 19.7751 56.0981C21.2894 67.6982 28.2908 78.4487 36.1169 87.2953C39.8051 91.4695 46.0719 95.5559 50.8095 98.5731C55.0674 100.609 58.3957 101.283 59.6401 100.58C61.3942 99.5837 61.2293 98.2216 63.1184 97.5332C65.5022 96.6691 70.5246 99.862 73.0584 99.9645C75.5921 100.067 77.3912 99.4958 78.3807 97.211C79.1153 95.512 79.0254 92.2165 80.6895 91.3963C84.6026 89.4776 91.2442 91.6306 93.733 89.9902C95.1723 89.0089 96.2667 85.2887 94.4976 83.2235Z" fill="#3F72AF"/>
<path d="M98.3205 41.8177C97.2711 40.9389 95.2621 41.3636 94.0027 41.2904C90.7793 41.1 87.5709 40.8217 86.2816 37.5262C85.9218 36.6035 85.7119 35.6368 85.487 34.6701C85.427 34.4358 84.8873 32.2828 84.8423 32.312C83.7479 33.3227 82.2936 33.8646 80.8393 34.26C78.1407 34.9777 75.3221 35.2414 72.5335 35.0656C71.3041 34.9924 69.9548 34.7727 69.1452 33.8792C68.5605 33.2348 68.3506 32.356 67.9908 31.5797C67.3461 30.1883 66.1467 29.0605 64.7224 28.4307C64.1077 28.1524 63.0133 27.713 62.3236 27.8595C61.604 28.0206 61.3641 28.709 60.8843 29.1923C61.1842 28.9726 61.544 28.958 61.9638 29.2363C62.5935 29.661 62.8633 30.2469 62.6235 30.657C59.8049 35.4464 56.4915 40.0015 53.7029 44.8056C51.3641 48.8334 49.4451 53.0516 47.7959 57.3577C47.2562 58.7784 46.8514 60.2431 46.4466 61.7077C44.4076 69.0456 44.5126 77.5992 47.9608 84.5124C48.5905 85.7867 48.9054 86.9145 49.2352 88.2473C49.7149 88.2473 50.1947 88.2034 50.6745 88.1301C60.1647 86.768 68.5905 82.3301 75.547 75.9588C83.7928 68.4158 90.1196 58.8809 95.322 49.1556C96.3865 47.1637 97.406 45.1717 98.3655 43.1505C98.4854 42.9015 98.6054 42.6379 98.5904 42.3596C98.6054 42.1399 98.4854 41.9641 98.3205 41.8177ZM92.8933 47.6177C92.3685 48.6283 91.7688 49.6096 91.2291 50.6203C89.9397 53.0369 88.3655 55.3365 87.1212 57.7824C86.3116 59.3789 85.0672 60.7557 84.0627 62.2643C82.8333 64.0951 81.529 65.8966 80.0447 67.5663C77.9458 69.9244 76.1017 72.4729 73.538 74.4795C72.1587 75.5634 70.8693 76.7204 69.43 77.7603C67.8258 78.9321 66.2217 80.0892 64.4076 80.9972C61.9788 82.2129 59.4451 83.2528 56.7014 83.9558C55.547 84.2488 54.3476 84.4245 53.2082 84.7614C52.5185 84.9665 52.0988 84.8053 51.7089 84.2048C50.4046 82.2568 49.595 80.177 48.9953 78.0533C47.8109 73.9376 47.8559 69.8512 48.6505 65.8087C49.4301 61.8688 50.4796 58.0168 52.0688 54.7799C53.8229 50.4591 55.8918 46.7829 58.2157 43.2237C59.655 40.9975 61.0942 38.7712 62.5335 36.5449C62.9833 35.8419 63.0732 35.8419 63.8528 36.3399C68.2756 39.1959 73.0432 39.9868 78.1107 39.0788C79.2051 38.8737 80.2546 38.5954 81.3041 38.3025C81.8738 38.156 82.1287 38.2 82.3536 38.8444C83.2081 41.3636 84.4675 43.751 87.1362 45.3328C88.5155 46.1531 90.0597 46.6803 91.7388 46.7243C91.9337 46.7243 92.1137 46.7389 92.3086 46.7682C93.0732 46.8561 93.2081 47.0172 92.8933 47.6177Z" fill="#3F72AF"/>
<path d="M49.2655 87.7347C49.2655 86.8119 48.7108 85.8892 48.246 85.0543C44.4379 78.1558 44.4079 69.1482 46.4619 61.737C46.8667 60.2723 47.2715 58.8077 47.8112 57.387C49.4604 53.0809 51.3794 48.8627 53.7182 44.8349C56.5068 40.0308 59.8202 35.4904 62.6388 30.6863C62.8786 30.2762 62.6088 29.6757 61.9791 29.2656C61.5893 29.0166 61.1845 28.9433 60.9296 29.1923C60.6598 29.4706 59.5803 30.9792 59.2655 31.4479C58.3809 32.81 57.4814 34.1722 56.5968 35.5489C55.2625 37.5995 53.9281 39.65 52.6838 41.7298C51.9042 43.0333 51.1395 44.3515 50.3899 45.6551C48.6808 48.6137 47.1665 51.6748 45.9072 54.8238C42.6088 63.1138 41.5744 72.927 44.7827 81.378C45.2925 82.7109 45.8322 84.0584 46.5369 85.3033C47.0166 86.1675 48.0361 88.218 49.2055 88.2912C49.2505 88.1008 49.2655 87.9251 49.2655 87.7347Z" fill="#FFA500"/>
<path d="M52.054 54.7799C53.8081 50.4591 55.8771 46.7828 58.2009 43.2237C59.6402 40.9975 61.0795 38.7712 62.5187 36.5449C62.9685 35.8419 63.0585 35.8419 63.8381 36.3398C68.2608 39.1959 73.0285 39.9868 78.0959 39.0788C79.1904 38.8737 80.2398 38.5954 81.2893 38.3025C81.859 38.156 82.1139 38.2 82.3388 38.8444C83.1934 41.3636 84.4527 43.751 87.1214 45.3328C88.5007 46.1531 90.0449 46.6803 91.7241 46.7243C91.919 46.7243 92.0989 46.7389 92.2938 46.7682C93.0884 46.8561 93.2383 47.0172 92.9235 47.6324C92.3987 48.643 91.799 49.6243 91.2593 50.6349C89.9699 53.0516 88.3957 55.3511 87.1514 57.7971C86.3418 59.3935 85.0974 60.7703 84.0929 62.2789C82.8635 64.1097 81.5592 65.9113 80.0749 67.581C77.976 69.9391 76.1319 72.4876 73.5682 74.4942C72.1889 75.578 70.8995 76.7351 69.4602 77.775C67.8561 78.9467 66.2519 80.1038 64.4378 81.0119C62.009 82.2275 59.4753 83.2675 56.7316 83.9705C55.5772 84.2634 54.3778 84.4392 53.2384 84.7761C52.5487 84.9811 52.129 84.82 51.7392 84.2195C50.4348 82.2715 49.6252 80.1917 49.0255 78.0679C47.8411 73.9522 47.8861 69.8658 48.6807 65.8234C49.4303 61.8688 50.4798 58.0021 52.054 54.7799Z" fill="#FFA500"/>
<path d="M84.0777 32.2242C82.0837 32.6782 80.0448 33.0297 78.0958 33.5863C76.3866 33.9964 74.6025 34.0696 72.8184 34.2015C71.7389 34.2747 70.6595 34.509 69.55 34.2015C70.0148 34.802 70.9743 34.9045 73.4931 35.1535C76.0418 35.4025 78.4706 35.0363 81.8888 34.0403C82.9083 33.7474 84.6025 33.0151 84.7824 32.3413C84.5425 32.1949 84.3026 32.1802 84.0777 32.2242Z" fill="#FFA500"/>
<path d="M17.931 45.0106C17.931 44.3662 17.931 43.7217 17.946 43.0773C17.961 42.6086 17.976 42.1399 18.006 41.6712C18.081 40.1187 18.2309 38.5515 18.4258 36.9989C18.5158 36.2813 18.6357 35.5489 18.7556 34.8313C18.8006 34.553 19.3253 32.7954 19.1754 32.6343C18.1559 31.609 18.081 31.8873 17.1364 30.8034C17.8111 30.2469 18.066 29.0166 17.9011 28.1378C17.7062 27.1272 16.8966 25.9994 16.2219 25.6332C15.5323 25.2524 13.7032 25.0473 13.0585 25.4575C11.9041 23.7584 9.83512 20.5362 8.86061 18.72C8.8756 18.72 8.8756 18.7054 8.8756 18.7054C8.29089 18.8518 7.64622 18.8226 7.0765 18.6175C6.16196 18.2806 5.44232 17.519 5.18745 16.5963C5.18745 16.5963 5.83213 18.1781 6.97155 18.471C8.45581 18.8518 8.99554 18.5296 9.53527 18.1781C10.1799 17.768 10.4198 16.9185 10.4948 16.1129C10.6747 14.2235 9.25041 12.5538 7.31638 12.3781C6.85162 12.3341 6.38685 12.3927 5.96706 12.5099C5.47231 12.6564 4.90259 12.9932 4.63273 13.2569C2.33888 15.4978 3.74817 26.6731 4.45282 29.3534C6.4768 37.0429 11.8891 43.9561 17.0465 47.7202C17.2564 47.8667 17.6912 47.9106 18.021 47.9985C17.8711 47.9692 17.931 45.2889 17.931 45.0106Z" fill="#3F72AF"/>
<path d="M43.3585 28.958C42.6388 31.8287 39.6853 33.5863 36.7468 32.8833C33.8083 32.1802 32.0092 29.2948 32.7288 26.4241C33.4484 23.5534 34.8128 27.757 37.7513 28.46C40.6898 29.1484 44.0781 26.0872 43.3585 28.958Z" fill="#112D4E"/>
<path d="M55.8148 23.9697C57.124 20.7349 56.3875 17.4181 54.1697 16.5615C51.952 15.7049 49.0929 17.6328 47.7837 20.8676C46.4745 24.1025 47.211 27.4192 49.4288 28.2758C51.6465 29.1324 54.5057 27.2045 55.8148 23.9697Z" fill="#112D4E"/>
<path d="M38.9768 18.5243C40.0729 15.8161 39.457 13.0395 37.6012 12.3227C35.7453 11.6059 33.3524 13.2202 32.2563 15.9285C31.1603 18.6367 31.7762 21.4132 33.632 22.13C35.4878 22.8469 37.8808 21.2325 38.9768 18.5243Z" fill="#112D4E"/>
<path d="M36.0856 14.0527C36.6748 13.5558 36.9242 12.8948 36.6429 12.5765C36.3615 12.2581 35.6558 12.4028 35.0667 12.8997C34.4776 13.3966 34.2281 14.0575 34.5095 14.3759C34.7908 14.6943 35.4965 14.5496 36.0856 14.0527Z" fill="white" stroke="white"/>
<path d="M51.3797 18.7124C51.9688 18.2155 52.2183 17.5545 51.9369 17.2362C51.6556 16.9178 50.9499 17.0625 50.3608 17.5594C49.7716 18.0563 49.5222 18.7172 49.8035 19.0356C50.0849 19.354 50.7906 19.2093 51.3797 18.7124Z" fill="white" stroke="white"/>
<path d="M251.35 75.4C247.43 75.4 243.814 74.5833 240.5 72.95C237.234 71.27 234.597 68.7267 232.59 65.32C230.63 61.8667 229.65 57.5033 229.65 52.23C229.65 47.47 230.677 43.3167 232.73 39.77C234.83 36.1767 237.724 33.4 241.41 31.44C245.097 29.4333 249.32 28.43 254.08 28.43C255.714 28.43 257.394 28.6167 259.12 28.99C260.847 29.3633 262.457 29.9467 263.95 30.74C265.444 31.4867 266.634 32.49 267.52 33.75C268.454 35.01 268.92 36.5267 268.92 38.3C268.92 40.2133 268.337 41.9633 267.17 43.55C266.004 45.09 264.37 45.86 262.27 45.86C261.384 45.86 260.45 45.65 259.47 45.23C258.537 44.7633 258.047 44.1333 258 43.34C258 43.2 258.28 42.9433 258.84 42.57C259.447 42.1967 260.03 41.6367 260.59 40.89C261.197 40.0967 261.5 39.07 261.5 37.81C261.5 35.8033 260.73 34.2167 259.19 33.05C257.65 31.8367 255.667 31.23 253.24 31.23C250.394 31.23 247.804 32.0233 245.47 33.61C243.137 35.1967 241.27 37.53 239.87 40.61C238.517 43.6433 237.84 47.3767 237.84 51.81C237.84 56.01 238.494 59.6267 239.8 62.66C241.154 65.6467 243.02 67.9567 245.4 69.59C247.827 71.1767 250.627 71.97 253.8 71.97C255.34 71.97 256.67 71.8767 257.79 71.69C258.91 71.5033 260.1 71.2233 261.36 70.85V63.71C261.36 62.4033 261.314 61.3767 261.22 60.63C261.127 59.8367 260.8 59.2533 260.24 58.88C259.68 58.5067 258.7 58.32 257.3 58.32C256.834 58.32 256.39 58.2733 255.97 58.18C255.597 58.0867 255.387 57.6433 255.34 56.85C255.34 56.4767 255.457 56.1267 255.69 55.8C255.97 55.4733 256.344 55.31 256.81 55.31C258.304 55.3567 259.564 55.4033 260.59 55.45C261.617 55.4967 262.924 55.52 264.51 55.52C266.097 55.52 267.38 55.4967 268.36 55.45C269.387 55.4033 270.624 55.3567 272.07 55.31C272.537 55.31 272.864 55.4733 273.05 55.8C273.284 56.1267 273.4 56.4767 273.4 56.85C273.354 57.6433 273.144 58.0867 272.77 58.18C272.397 58.2733 271.954 58.32 271.44 58.32C270.134 58.32 269.2 58.53 268.64 58.95C268.127 59.3233 267.8 59.9067 267.66 60.7C267.567 61.4933 267.52 62.4967 267.52 63.71V71.97C265.7 72.81 263.997 73.4867 262.41 74C260.87 74.5133 259.214 74.8633 257.44 75.05C255.714 75.2833 253.684 75.4 251.35 75.4ZM274.275 74.21C273.902 74.21 273.622 74.07 273.435 73.79C273.249 73.4633 273.155 73.1367 273.155 72.81C273.202 72.11 273.365 71.7367 273.645 71.69C273.972 71.5967 274.345 71.55 274.765 71.55C276.072 71.55 276.959 71.34 277.425 70.92C277.939 70.4533 278.219 69.8467 278.265 69.1C278.359 68.3533 278.405 67.5833 278.405 66.79V32.63C278.405 31.79 278.359 31.02 278.265 30.32C278.219 29.5733 277.962 28.99 277.495 28.57C277.029 28.1033 276.142 27.87 274.835 27.87C274.415 27.87 274.019 27.8233 273.645 27.73C273.319 27.59 273.155 27.17 273.155 26.47C273.155 25.77 273.529 25.35 274.275 25.21C276.422 24.8833 278.055 24.5567 279.175 24.23C280.342 23.9033 281.229 23.6233 281.835 23.39C282.442 23.11 282.979 22.97 283.445 22.97C283.819 22.97 284.122 23.0633 284.355 23.25C284.635 23.39 284.775 23.74 284.775 24.3V46.84H284.915C285.849 45.9533 286.805 45.1133 287.785 44.32C288.765 43.48 289.909 42.8033 291.215 42.29C292.569 41.73 294.225 41.45 296.185 41.45C299.359 41.45 301.879 42.4067 303.745 44.32C305.612 46.2333 306.545 48.7533 306.545 51.88V66.79C306.545 67.5833 306.569 68.3533 306.615 69.1C306.709 69.8467 306.989 70.4533 307.455 70.92C307.969 71.34 308.855 71.55 310.115 71.55C310.582 71.55 310.955 71.5967 311.235 71.69C311.515 71.7367 311.679 72.11 311.725 72.81C311.725 73.1367 311.632 73.4633 311.445 73.79C311.305 74.07 311.049 74.21 310.675 74.21C309.322 74.1167 308.062 74.0467 306.895 74C305.729 74 304.539 74 303.325 74C302.065 74 300.875 74 299.755 74C298.635 74.0467 297.399 74.1167 296.045 74.21C295.672 74.21 295.392 74.07 295.205 73.79C295.019 73.4633 294.925 73.1367 294.925 72.81C294.972 72.11 295.135 71.7367 295.415 71.69C295.695 71.5967 296.069 71.55 296.535 71.55C297.842 71.55 298.729 71.34 299.195 70.92C299.709 70.4533 299.989 69.8467 300.035 69.1C300.082 68.3533 300.105 67.5833 300.105 66.79V51.95C300.105 49.6167 299.405 47.9367 298.005 46.91C296.605 45.8367 295.089 45.3 293.455 45.3C291.869 45.3 290.469 45.6033 289.255 46.21C288.042 46.77 287.062 47.4233 286.315 48.17C285.569 48.9167 285.055 49.57 284.775 50.13V66.79C284.775 67.5833 284.799 68.3533 284.845 69.1C284.939 69.8467 285.219 70.4533 285.685 70.92C286.199 71.34 287.085 71.55 288.345 71.55C288.812 71.55 289.185 71.5967 289.465 71.69C289.745 71.7367 289.909 72.11 289.955 72.81C289.955 73.1367 289.862 73.4633 289.675 73.79C289.535 74.07 289.279 74.21 288.905 74.21C287.552 74.1167 286.292 74.0467 285.125 74C283.959 74 282.769 74 281.555 74C280.295 74 279.105 74 277.985 74C276.865 74.0467 275.629 74.1167 274.275 74.21ZM328.873 74.84C325.606 74.84 322.736 74.07 320.263 72.53C317.836 70.99 315.946 68.9833 314.593 66.51C313.239 64.0367 312.563 61.4 312.563 58.6C312.563 55.8467 313.053 53.3967 314.033 51.25C315.013 49.1033 316.296 47.3067 317.883 45.86C319.516 44.4133 321.289 43.3167 323.203 42.57C325.116 41.8233 327.006 41.45 328.873 41.45C332.139 41.45 334.986 42.22 337.413 43.76C339.886 45.3 341.799 47.3067 343.153 49.78C344.506 52.2533 345.183 54.89 345.183 57.69C345.183 60.4433 344.669 62.8933 343.643 65.04C342.663 67.1867 341.356 68.9833 339.723 70.43C338.136 71.8767 336.386 72.9733 334.473 73.72C332.559 74.4667 330.693 74.84 328.873 74.84ZM328.873 72.25C331.159 72.25 332.956 71.5733 334.263 70.22C335.616 68.8667 336.573 67.0933 337.133 64.9C337.739 62.66 338.043 60.2567 338.043 57.69C338.043 55.2167 337.739 52.9533 337.133 50.9C336.526 48.8467 335.546 47.19 334.193 45.93C332.839 44.67 331.066 44.04 328.873 44.04C326.586 44.04 324.766 44.7167 323.413 46.07C322.059 47.3767 321.103 49.1267 320.543 51.32C319.983 53.4667 319.703 55.8467 319.703 58.46C319.703 60.8867 319.983 63.15 320.543 65.25C321.149 67.35 322.129 69.0533 323.483 70.36C324.836 71.62 326.633 72.25 328.873 72.25ZM360.502 74.84C356.909 74.84 353.899 74.21 351.472 72.95C349.092 71.6433 347.902 69.7767 347.902 67.35C347.902 65.9967 348.299 64.9 349.092 64.06C349.932 63.22 351.005 62.8 352.312 62.8C353.152 62.8 353.829 63.0333 354.342 63.5C354.902 63.92 355.182 64.2233 355.182 64.41C355.182 64.55 354.902 64.8767 354.342 65.39C353.829 65.8567 353.572 66.6267 353.572 67.7C353.572 69.0067 354.179 70.1033 355.392 70.99C356.652 71.83 358.542 72.25 361.062 72.25C363.255 72.25 364.959 71.7833 366.172 70.85C367.432 69.87 368.062 68.5167 368.062 66.79C368.062 65.39 367.595 64.3167 366.662 63.57C365.775 62.7767 364.609 62.1467 363.162 61.68C361.762 61.2133 360.245 60.7467 358.612 60.28C357.025 59.8133 355.509 59.23 354.062 58.53C352.615 57.83 351.425 56.8733 350.492 55.66C349.605 54.4 349.162 52.7433 349.162 50.69C349.162 48.59 349.792 46.8633 351.052 45.51C352.312 44.1567 353.922 43.1533 355.882 42.5C357.842 41.8 359.825 41.45 361.832 41.45C363.559 41.45 365.192 41.7067 366.732 42.22C368.272 42.6867 369.532 43.41 370.512 44.39C371.539 45.37 372.052 46.6067 372.052 48.1C372.052 49.2667 371.679 50.3167 370.932 51.25C370.185 52.1833 369.159 52.65 367.852 52.65C367.012 52.65 366.312 52.44 365.752 52.02C365.239 51.5533 364.982 51.2267 364.982 51.04C364.982 50.9467 365.145 50.7833 365.472 50.55C365.845 50.27 366.195 49.92 366.522 49.5C366.849 49.0333 367.012 48.45 367.012 47.75C366.919 46.3967 366.265 45.3933 365.052 44.74C363.839 44.0867 362.485 43.76 360.992 43.76C359.359 43.76 357.842 44.1567 356.442 44.95C355.042 45.7433 354.342 46.8867 354.342 48.38C354.342 49.7333 354.622 50.7833 355.182 51.53C355.789 52.2767 356.722 52.93 357.982 53.49C359.289 54.0033 360.969 54.5867 363.022 55.24C365.075 55.8933 366.872 56.57 368.412 57.27C369.999 57.97 371.212 58.9033 372.052 60.07C372.939 61.19 373.382 62.73 373.382 64.69C373.382 66.65 372.822 68.4 371.702 69.94C370.582 71.48 369.042 72.6933 367.082 73.58C365.169 74.42 362.975 74.84 360.502 74.84ZM388.597 75.19C387.197 75.19 385.867 74.84 384.607 74.14C383.347 73.44 382.297 72.3667 381.457 70.92C380.664 69.4733 380.267 67.6533 380.267 65.46V44.88L376.207 45.02C375.881 45.02 375.624 44.9033 375.437 44.67C375.297 44.39 375.227 44.0867 375.227 43.76C375.227 42.8267 375.554 42.29 376.207 42.15C377.934 41.8233 379.241 41.2867 380.127 40.54C381.014 39.7467 381.691 38.8133 382.157 37.74C382.671 36.6667 383.137 35.5 383.557 34.24C383.697 33.8667 383.907 33.6333 384.187 33.54C384.467 33.4 384.771 33.33 385.097 33.33C385.377 33.33 385.681 33.4 386.007 33.54C386.381 33.68 386.567 33.9367 386.567 34.31L386.077 42.29L394.267 41.8C394.687 41.7533 394.967 41.87 395.107 42.15C395.247 42.43 395.317 42.7567 395.317 43.13C395.317 43.5967 395.224 44.0633 395.037 44.53C394.897 44.9967 394.711 45.23 394.477 45.23L386.637 45.02V66.3C386.637 67.6533 386.917 68.89 387.477 70.01C388.084 71.13 389.157 71.69 390.697 71.69C391.211 71.69 391.794 71.6433 392.447 71.55C393.101 71.4567 393.801 71.2467 394.547 70.92C394.734 70.8267 394.921 70.7567 395.107 70.71C395.294 70.6167 395.481 70.57 395.667 70.57C396.041 70.57 396.321 70.7333 396.507 71.06C396.694 71.34 396.857 71.6433 396.997 71.97C397.137 72.39 397.021 72.7167 396.647 72.95C395.201 73.8833 393.871 74.49 392.657 74.77C391.444 75.05 390.091 75.19 388.597 75.19Z" fill="#3F72AF"/>
<path d="M133.531 74.7L121.911 38.3C121.164 36.3867 120.417 35.01 119.671 34.17C118.924 33.33 117.804 32.77 116.311 32.49C115.657 32.35 115.191 32.2333 114.911 32.14C114.677 32.0467 114.561 31.6267 114.561 30.88C114.561 30.0867 114.841 29.6667 115.401 29.62C115.961 29.5267 116.614 29.48 117.361 29.48C120.487 29.5267 122.914 30.11 124.641 31.23C126.367 32.3033 127.744 34.17 128.771 36.83L136.751 62.45H137.031L145.571 29.83H149.211L160.621 62.45H160.831L168.741 36.06C169.114 34.5667 169.091 33.6333 168.671 33.26C168.297 32.84 167.294 32.63 165.661 32.63C165.194 32.63 164.797 32.5833 164.471 32.49C164.144 32.3967 163.957 31.9533 163.911 31.16C163.911 30.7867 164.004 30.4367 164.191 30.11C164.377 29.7833 164.681 29.62 165.101 29.62C166.594 29.6667 167.877 29.7133 168.951 29.76C170.071 29.8067 171.331 29.83 172.731 29.83C173.664 29.83 174.434 29.83 175.041 29.83C175.647 29.7833 176.254 29.76 176.861 29.76C177.514 29.7133 178.331 29.6667 179.311 29.62C179.777 29.62 180.104 29.7833 180.291 30.11C180.477 30.4367 180.571 30.7867 180.571 31.16C180.524 31.9533 180.337 32.3967 180.011 32.49C179.731 32.5833 179.334 32.63 178.821 32.63C177.047 32.63 175.577 32.98 174.411 33.68C173.291 34.3333 172.474 35.57 171.961 37.39L160.481 74.7H157.191L145.851 41.31L136.821 74.7H133.531ZM180.137 74.21C179.717 74.21 179.39 74.0467 179.157 73.72C178.97 73.3933 178.877 73.0433 178.877 72.67C178.924 71.8767 179.11 71.4333 179.437 71.34C179.81 71.2467 180.23 71.2 180.697 71.2C182.19 71.2 183.24 70.9433 183.847 70.43C184.454 69.87 184.827 69.1933 184.967 68.4C185.154 67.56 185.247 66.6967 185.247 65.81V38.02C185.247 37.1333 185.154 36.2933 184.967 35.5C184.827 34.66 184.454 33.9833 183.847 33.47C183.24 32.91 182.19 32.63 180.697 32.63C180.23 32.63 179.81 32.5833 179.437 32.49C179.11 32.3967 178.924 31.9533 178.877 31.16C178.877 30.7867 178.97 30.4367 179.157 30.11C179.39 29.7833 179.717 29.62 180.137 29.62C181.63 29.6667 183.054 29.7133 184.407 29.76C185.76 29.8067 187.137 29.83 188.537 29.83H199.037C199.924 29.83 201.067 29.9 202.467 30.04C203.914 30.18 205.43 30.46 207.017 30.88C208.65 31.3 210.19 31.9767 211.637 32.91C213.084 33.8433 214.25 35.08 215.137 36.62C216.07 38.16 216.537 40.0967 216.537 42.43C216.537 44.6233 216.024 46.6067 214.997 48.38C214.017 50.1533 212.687 51.67 211.007 52.93C209.374 54.19 207.507 55.17 205.407 55.87C203.354 56.5233 201.254 56.85 199.107 56.85C198.08 56.85 196.96 56.78 195.747 56.64C194.534 56.5 193.32 56.1967 192.107 55.73V65.81C192.154 66.6967 192.247 67.56 192.387 68.4C192.527 69.1933 192.9 69.87 193.507 70.43C194.16 70.9433 195.21 71.2 196.657 71.2C197.17 71.2 197.59 71.2467 197.917 71.34C198.244 71.4333 198.43 71.8767 198.477 72.67C198.477 73.0433 198.36 73.3933 198.127 73.72C197.94 74.0467 197.637 74.21 197.217 74.21C194.23 74.07 191.314 74 188.467 74C187.067 74 185.69 74 184.337 74C183.03 74.0467 181.63 74.1167 180.137 74.21ZM197.077 53.7C198.15 53.7 199.34 53.5367 200.647 53.21C202 52.8367 203.284 52.2533 204.497 51.46C205.757 50.62 206.784 49.5 207.577 48.1C208.37 46.6533 208.767 44.8333 208.767 42.64C208.767 40.26 208.3 38.3933 207.367 37.04C206.434 35.64 205.267 34.6133 203.867 33.96C202.514 33.3067 201.16 32.8867 199.807 32.7C198.454 32.5133 197.357 32.42 196.517 32.42C195.397 32.42 194.51 32.5367 193.857 32.77C193.204 33.0033 192.737 33.5167 192.457 34.31C192.224 35.0567 192.107 36.2233 192.107 37.81V52.93C192.574 53.1167 193.25 53.3033 194.137 53.49C195.024 53.63 196.004 53.7 197.077 53.7Z" fill="#112D4E"/>
</svg>
